<svg id="Livello_1" data-name="Livello 1" xmlns="http://www.w3.org/2000/svg" viewBox="0 0 1021.04 1042.39">
  <defs>
    <style>
      .cls-1 {
        fill: #f1f1f1;
      }

      .cls-2, .cls-6 {
        fill: #fff;
      }

      .cls-3, .cls-6 {
        opacity: 0.2;
        isolation: isolate;
      }

      .cls-4 {
        fill: #e1e1e0;
      }

      .cls-5 {
        fill: none;
      }
    </style>
  </defs>
  <title>ICON DENUNCIA SINISTRO</title>
  <g>
    <path id="Path_229" data-name="Path 229" class="cls-1" d="M937.44,493.35c0,239.37-194,433.42-433.39,433.43S70.64,732.75,70.63,493.39,264.66,60,504,60h.07C743.42,60,937.42,254,937.44,493.35Z" transform="translate(-29.32 -18.81)"/>
    <path id="Path_230" data-name="Path 230" class="cls-2" d="M739.67,661.64c-11.88,35.86-37.26,251-39,265.19H307.46c-1.71-14.16-27.14-229.33-39.25-265.19,3.58-3.72,135.38-99.52,140.28-101.52s9.29-11.25,12.61-23.34v-.26l.19-.19c.46-1.85.89-3.82,1.56-6.09V530c1.33-5.33,2.54-11.14,3.45-16.93v-.56c.63-4.46,1.26-8.89,1.73-13.17.26-1.85.44-3.56.63-5.29.35-3.54.63-6.9.91-10.08s.28-5.72.37-8.35V473c-.09-1.2-.09-2.34-.09-3.47v-4.34a16.69,16.69,0,0,0-.38-3.25v-.45H578.84a7.81,7.81,0,0,0-.28,1.73c-.17,1.37-.26,2.89-.39,4.64a15.51,15.51,0,0,1,0,1.67V472c0,5.42.33,12,1,18.9.17,2.78.45,5.57.82,8.54.45,4.25,1.11,8.8,1.86,13v.18a.45.45,0,0,0,.13.5,160.53,160.53,0,0,0,3.39,16.71v.3c.38,2.27,1.1,4.29,1.56,6.09l.21.19v.26c3.34,12.08,7.61,21.24,12.6,23.33S736.07,658,739.67,661.64Z" transform="translate(-29.32 -18.81)"/>
    <path id="Path_231" data-name="Path 231" class="cls-3" d="M581.68,512.61a95.34,95.34,0,0,1-155.38,0,211.09,211.09,0,0,0,3-51H578.63A215.22,215.22,0,0,0,581.68,512.61Z" transform="translate(-29.32 -18.81)"/>
    <path id="Path_232" data-name="Path 232" class="cls-2" d="M628.11,317v.2c-.26,5.39-.69,11-.91,16.6H627c-2.25,30.58-6.76,63.55-9.45,93.61C611.5,493,538.09,537.63,504,537.63S396.63,492.94,390.54,427.37c-2.91-29.84-7.42-63.12-9.63-93.61-.26-5.57-.65-11.14-.91-16.6a141.31,141.31,0,0,1,10.54-72.11c20.89-35.68,81.52-59.41,113.42-59.41s92.5,23.78,113.59,59.41A140.66,140.66,0,0,1,628.11,317Z" transform="translate(-29.32 -18.81)"/>
    <path id="Path_233" data-name="Path 233" class="cls-2" d="M769.29,854.24,253.6,892.89S194.52,759.48,213.2,712.8c8.11-19.7,31.26-85.4,62.38-109.42,33.23-25.85,119.19-41,132.9-43.21,10.17,38,42.38,49.5,95.43,49.5s85.53-11.55,95.68-49.5c13.45,2.19,97,15.34,132.92,43.21,31,24,54.27,89.72,62.19,109.42C813.38,759.48,769.29,854.24,769.29,854.24Z" transform="translate(-29.32 -18.81)"/>
    <path id="Path_234" data-name="Path 234" class="cls-4" d="M504.11,18.81c-262-.25-474.54,211.92-474.79,473.89A474.36,474.36,0,0,0,198.81,856.56a5.91,5.91,0,0,0,1.38,1.11c4.64,4.09,9.39,7.89,14.16,11.5A448.5,448.5,0,0,0,256,898a472.78,472.78,0,0,0,496.1,0,458,458,0,0,0,41.74-28.85c10.9-8.4,21.54-17.34,31.56-26.72a6.25,6.25,0,0,1,1.28-1.13c176.36-163.24,202.65-432.63,61.18-626.88A471.75,471.75,0,0,0,504.11,18.81ZM864.72,647a392.07,392.07,0,0,1-39.23,70.55c-4.74,7-9.79,13.72-15.1,20.29l-.16.15a381.26,381.26,0,0,1-38.08,41.16l-.1.15a390.8,390.8,0,0,1-138.72,84.25c-5.57,2-11.38,3.92-17.1,5.57a391.06,391.06,0,0,1-224.09,0,382.28,382.28,0,0,1-92.55-41.26,387.94,387.94,0,0,1-63.42-48.58l-.11-.15c-6.73-6.17-13.21-12.61-19.31-19.33S204.57,746.13,198.81,739a396.06,396.06,0,0,1-31.56-45.34C56.52,507.69,117.5,267.18,303.46,156.45c166.82-99.33,381.22-61.54,504,88.84a383.52,383.52,0,0,1,45.37,69.11A390.79,390.79,0,0,1,864.77,647Z" transform="translate(-29.32 -18.81)"/>
    <path id="Path_235" data-name="Path 235" class="cls-5" d="M504.11,18.81c-262-.25-474.54,211.92-474.79,473.89A474.36,474.36,0,0,0,198.81,856.56a5.91,5.91,0,0,0,1.38,1.11c4.64,4.09,9.39,7.89,14.16,11.5A448.5,448.5,0,0,0,256,898a472.78,472.78,0,0,0,496.1,0,458,458,0,0,0,41.74-28.85c10.9-8.4,21.54-17.34,31.56-26.72a6.25,6.25,0,0,1,1.28-1.13c192.21-178.1,203.64-478.29,25.55-670.49a474.43,474.43,0,0,0-348.21-152Z" transform="translate(-29.32 -18.81)"/>
    <path id="Path_236" data-name="Path 236" class="cls-5" d="M504.11,18.81c-262-.25-474.54,211.92-474.79,473.89A474.36,474.36,0,0,0,198.81,856.56a5.91,5.91,0,0,0,1.38,1.11c4.64,4.09,9.39,7.89,14.16,11.5A448.5,448.5,0,0,0,256,898a472.78,472.78,0,0,0,496.1,0,458,458,0,0,0,41.74-28.85c10.9-8.4,21.54-17.34,31.56-26.72a6.25,6.25,0,0,1,1.28-1.13c192.21-178.1,203.64-478.29,25.55-670.49a474.43,474.43,0,0,0-348.21-152Z" transform="translate(-29.32 -18.81)"/>
    <path id="Path_237" data-name="Path 237" class="cls-2" d="M877,609.74s-94.13,45.34-154.1,43.82c0,0-2.93,196.26,19,249.88C761.86,952.38,877,1037.6,877,1037.6s115.22-85.22,135.24-134.16c21.91-53.62,19-249.88,19-249.88C971.1,655.08,877,609.74,877,609.74Z" transform="translate(-29.32 -18.81)"/>
    <path id="Path_238" data-name="Path 238" class="cls-2" d="M1012.17,903.44c-20,49-135.26,134.19-135.26,134.19V609.71S971.1,655,1031.16,653.56C1031.16,653.56,1034.07,849.82,1012.17,903.44Z" transform="translate(-29.32 -18.81)"/>
    <path id="Path_239" data-name="Path 239" class="cls-6" d="M1021.67,653.54a114.42,114.42,0,0,1-13.48-.44c-2.43,71.16-8.33,152.44-22.28,186.88-18.8,46-104.69,117.56-146.46,150.39,20.29,16.7,35.74,28.12,35.74,28.12s109.54-81,128.55-127.51C1024.48,840.09,1021.67,653.54,1021.67,653.54Z" transform="translate(-29.32 -18.81)"/>
    <path id="Path_240" data-name="Path 240" class="cls-4" d="M877,609.73S968,653.6,1028.19,653.6h3s2.93,196.26-19,249.88C992.17,952.41,877,1037.63,877,1037.63S761.84,952.42,741.74,903.48c-21.91-53.62-19-249.88-19-249.88h3C785.92,653.6,877,609.73,877,609.73Zm0-21.1-8.24,4c-.86.42-87.88,42-143,42h-2.54l-19.16-.5-.32,19.13c-.3,20.55-2.3,201.81,20.42,257.36C745.56,963,853.43,1043.8,865.66,1052.88l11.29,8.31,11.33-8.31c12.19-9.08,120.06-89.92,141.51-142.29,22.68-55.55,20.66-236.81,20.42-257.36L1050,634.1l-19.2.45h-2.51c-55.19,0-142.1-41.57-143-42l-8.27-4Z" transform="translate(-29.32 -18.81)"/>
  </g>
</svg>
