<svg id="Livello_1" data-name="Livello 1" xmlns="http://www.w3.org/2000/svg" viewBox="0 0 880.28 878.36">
  <defs>
    <style>
      .cls-1 {
        fill: #221f20;
      }
    </style>
  </defs>
  <title>ICON PHONE</title>
  <g id="Group_73" data-name="Group 73">
    <path id="Path_138" data-name="Path 138" class="cls-1" d="M1007.49,801.48l-136-136a70.92,70.92,0,0,0-99.95,1.89l-68.49,68.5-13.53-7.55A641.69,641.69,0,0,1,405.4,444.13c-2.54-4.58-5-9-7.35-13.2L444,385l22.6-22.77a70.81,70.81,0,0,0,1.82-99.95l-135.95-136a70.81,70.81,0,0,0-100,1.88l-38.31,38.54,1,1.05a221,221,0,0,0-31.58,55.68A230.67,230.67,0,0,0,149.63,280c-17.95,148.83,50.05,284.85,234.63,469.43C639.38,1004.53,845,985.24,853.88,984.3a229.58,229.58,0,0,0,56.62-14.25A220.92,220.92,0,0,0,966,938.6l.85.75,38.83-38A71,71,0,0,0,1007.49,801.48Z" transform="translate(-146.85 -106.62)"/>
  </g>
</svg>
