<svg id="Livello_1" data-name="Livello 1" xmlns="http://www.w3.org/2000/svg" viewBox="0 0 988.3 988.34">
  <defs>
    <style>
      .cls-1 {
        fill: #e1e1e0;
      }

      .cls-2 {
        fill: none;
      }

      .cls-3, .cls-4 {
        fill: #fff;
      }

      .cls-4 {
        opacity: 0.2;
        isolation: isolate;
      }
    </style>
  </defs>
  <title>ICON STATUS CERTIFICATO</title>
  <g id="Group_355" data-name="Group 355">
    <path id="Path_37" data-name="Path 37" class="cls-1" d="M985,543.2c0,249.14-202,451.12-451.1,451.13s-451.13-202-451.13-451.1S284.69,92.11,533.83,92.1h.07C783,92.14,985,294.09,985,543.2Z" transform="translate(-39.72 -49.26)"/>
    <path id="Path_43" data-name="Path 43" class="cls-2" d="M533.94,49.27C261.26,49,40,269.82,39.72,542.49A493.69,493.69,0,0,0,216.16,921.26a6,6,0,0,0,1.44,1.16c4.83,4.25,9.78,8.21,14.75,12a464.55,464.55,0,0,0,43.38,30,492.11,492.11,0,0,0,516.38,0,473.8,473.8,0,0,0,43.43-30c11.34-8.66,22.43-18,32.91-27.81a6.5,6.5,0,0,1,1.33-1.18c200.09-185.34,212-497.8,26.69-697.88A493.82,493.82,0,0,0,533.94,49.26Z" transform="translate(-39.72 -49.26)"/>
    <path id="Path_44" data-name="Path 44" class="cls-2" d="M533.94,49.27C261.26,49,40,269.82,39.72,542.49A493.69,493.69,0,0,0,216.16,921.26a6,6,0,0,0,1.44,1.16c4.83,4.25,9.78,8.21,14.75,12a464.55,464.55,0,0,0,43.38,30,492.11,492.11,0,0,0,516.38,0,473.8,473.8,0,0,0,43.43-30c11.34-8.66,22.43-18,32.91-27.81a6.5,6.5,0,0,1,1.33-1.18c200.09-185.34,212-497.8,26.69-697.88A493.82,493.82,0,0,0,533.94,49.26Z" transform="translate(-39.72 -49.26)"/>
  </g>
  <g id="Group_356" data-name="Group 356">
    <path id="Path_59" data-name="Path 59" class="cls-3" d="M533,281.67s-112.3,54.1-183.94,52.27c0,0-3.47,234.13,22.63,298.12,23.9,58.36,161.31,160,161.31,160s137.45-101.68,161.32-160c26.13-64,22.65-298.12,22.65-298.12C645.36,335.77,533,281.67,533,281.67Z" transform="translate(-39.72 -49.26)"/>
    <path id="Path_60" data-name="Path 60" class="cls-3" d="M694.34,632C670.46,690.42,533,792.12,533,792.12V281.64s112.37,54.1,184,52.3C717,333.92,720.51,568.07,694.34,632Z" transform="translate(-39.72 -49.26)"/>
    <path id="Path_61" data-name="Path 61" class="cls-4" d="M705.7,333.9a136.84,136.84,0,0,1-16.07-.53c-2.89,84.86-9.94,181.84-26.65,223-22.52,54.9-124.9,140.28-174.75,179.49,24.25,19.95,42.64,33.54,42.64,33.54s130.65-96.62,153.36-152.11C709,556.45,705.7,333.9,705.7,333.9Z" transform="translate(-39.72 -49.26)"/>
    <path id="Path_62" data-name="Path 62" class="cls-1" d="M533,281.67S641.68,334,713.46,334H717s3.47,234.13-22.65,298.12c-23.88,58.37-161.32,160-161.32,160s-137.43-101.68-161.31-160C345.6,568.12,349.09,334,349.09,334h3.61C424.43,334,533,281.67,533,281.67Zm0-25.18-9.82,4.73c-1,.5-104.85,50.1-170.52,50.1h-3l-22.86-.52-.37,22.84c-.36,24.51-2.75,240.73,24.25,307,25.53,62.47,154.24,158.92,168.82,169.72L533,820.31l13.51-9.94C561,799.55,689.72,703.1,715.28,640.65c27.07-66.26,24.66-282.5,24.25-307l-.32-22.84-22.91.52h-3c-65.81,0-169.53-49.6-170.57-50.1l-9.85-4.73Z" transform="translate(-39.72 -49.26)"/>
  </g>
</svg>
