<svg id="Livello_1" data-name="Livello 1" xmlns="http://www.w3.org/2000/svg" viewBox="0 0 845.37 1020.58">
  <defs>
    <style>
      .cls-1 {
        fill: #e1e1e0;
      }

      .cls-2 {
        fill: #f8f7f7;
      }

      .cls-3 {
        opacity: 0.12;
      }

      .cls-3, .cls-6 {
        isolation: isolate;
      }

      .cls-4 {
        fill: #babcbe;
      }

      .cls-5, .cls-6 {
        fill: #fff;
      }

      .cls-6 {
        opacity: 0.2;
      }
    </style>
  </defs>
  <title>ICON ASSICURAZIONE</title>
  <rect id="Rectangle_5" data-name="Rectangle 5" class="cls-1" y="100.27" width="673.67" height="898.99"/>
  <rect id="Rectangle_6" data-name="Rectangle 6" class="cls-2" x="33.97" y="128.9" width="605.73" height="831.74"/>
  <g id="Group_11" data-name="Group 11">
    <g id="Group_10" data-name="Group 10">
      <path id="Path_57" data-name="Path 57" class="cls-2" d="M589.45,69.76h-4V67A50.81,50.81,0,0,0,531.5,20.06H492.27A50.81,50.81,0,0,0,438.35,67v2.76h-4a50.79,50.79,0,0,0-53.93,46.94v52.35H643.46V116.7A50.82,50.82,0,0,0,589.45,69.76Zm-43,1.07H477.19a12.89,12.89,0,1,1-1-25.76H546.5a12.89,12.89,0,0,1,0,25.76Z" transform="translate(-174.98 -19.96)"/>
    </g>
    <rect id="Rectangle_7" data-name="Rectangle 7" class="cls-3" x="205.31" y="124.51" width="263.06" height="24.69"/>
  </g>
  <g id="Group_12" data-name="Group 12">
    <rect id="Rectangle_8" data-name="Rectangle 8" class="cls-4" x="112.93" y="298.35" width="455.18" height="12.24"/>
    <rect id="Rectangle_9" data-name="Rectangle 9" class="cls-4" x="112.93" y="388.62" width="455.18" height="12.24"/>
    <rect id="Rectangle_10" data-name="Rectangle 10" class="cls-4" x="112.93" y="478.89" width="455.18" height="12.24"/>
    <rect id="Rectangle_11" data-name="Rectangle 11" class="cls-4" x="112.93" y="569.16" width="455.18" height="12.24"/>
  </g>
  <rect id="Rectangle_12" data-name="Rectangle 12" class="cls-4" x="112.52" y="764.71" width="167.33" height="4.33"/>
  <path id="Path_58" data-name="Path 58" class="cls-4" d="M363.84,707.84a30.58,30.58,0,0,0-24.51,1.58,31.16,31.16,0,0,0-3.48-1.58,30.47,30.47,0,1,0-4.79,58.5,28.64,28.64,0,0,0,8.33-2.9,30.42,30.42,0,1,0,27.93-54.06,29.93,29.93,0,0,0-3.48-1.54ZM334,760.44a25.53,25.53,0,1,1-3.73-49.05,24.53,24.53,0,0,1,4,1.19,29.24,29.24,0,0,0-4.79,4.71A30.75,30.75,0,0,0,327,752a30.38,30.38,0,0,0,7.33,8.32Zm16.81-24a26.16,26.16,0,0,1-11.5,21.32,25.33,25.33,0,0,1-5.53-4.85,25.75,25.75,0,0,1-2.44-29.52,25.48,25.48,0,0,1,8.05-8.28A26.17,26.17,0,0,1,350.83,736.44Zm11.18,24a25.65,25.65,0,0,1-17.76-.2,31.64,31.64,0,0,0,11.52-23.8,31.3,31.3,0,0,0-11.54-23.8,25.51,25.51,0,1,1,17.82,47.8Z" transform="translate(-174.98 -19.96)"/>
  <path id="Path_59" data-name="Path 59" class="cls-5" d="M829.72,544s-103.5,49.86-169.55,48.17c0,0-3.22,215.82,20.86,274.8,22,53.81,148.69,147.52,148.69,147.52S956.42,920.77,978.43,867c24.16-59,20.88-274.8,20.88-274.8C933.26,593.85,829.72,544,829.72,544Z" transform="translate(-174.98 -19.96)"/>
  <path id="Path_60" data-name="Path 60" class="cls-5" d="M978.43,866.94c-22,53.83-148.75,147.58-148.75,147.58V544s103.56,49.86,169.61,48.21C999.29,592.18,1002.51,808,978.43,866.94Z" transform="translate(-174.98 -19.96)"/>
  <path id="Path_61" data-name="Path 61" class="cls-6" d="M988.88,592.16a128.54,128.54,0,0,1-14.82-.5c-2.68,78.27-9.17,167.65-24.57,205.51-20.68,50.6-115.12,129.3-161.09,165.46,22.31,18.39,39.3,30.93,39.3,30.93S948.14,904.5,969.06,853.35C991.94,797.29,988.88,592.16,988.88,592.16Z" transform="translate(-174.98 -19.96)"/>
  <path id="Path_62" data-name="Path 62" class="cls-1" d="M829.7,544S929.86,592.34,996,592.34h3.29s3.22,215.82-20.88,274.8C956.4,921,829.7,1014.66,829.7,1014.66S703,921,681,867.14c-24.16-59-20.86-274.8-20.86-274.8h3.32C729.6,592.34,829.7,544,829.7,544Zm0-23.21-9.06,4.37c-.93.46-96.66,46.19-157.19,46.19h-2.8l-21.06-.48-.34,21c-.33,22.59-2.54,221.9,22.41,283,23.54,57.59,142.16,146.49,155.61,156.46l12.41,9.16,12.46-9.16c13.43-10.07,132-98.87,155.62-156.46,25-61.08,22.73-260.41,22.39-283l-.3-21-21.11.48H996c-60.69,0-156.27-45.71-157.22-46.19l-9.08-4.37Z" transform="translate(-174.98 -19.96)"/>
</svg>
