<svg xmlns="http://www.w3.org/2000/svg" viewBox="0 0 1023 1023" width="37" height="37">
	<style>
		tspan { white-space:pre }
		.shp0 { fill: #ffffff;stroke: #7c7c7c;stroke-width: 6.24 } 
		.shp1 { fill: #e0dfdf;stroke: #7c7c7c;stroke-width: 6.24 } 
		.shp2 { fill: #7c7c7c } 
		.shp3 { fill: #e0dfdf } 
	</style>
	<g id="Group_25">
		<path id="Rectangle_44" class="shp0" d="M3.12 45.84L1019.77 45.84L1019.77 1019.24L3.12 1019.24L3.12 45.84Z" />
		<path id="Rectangle_45" class="shp1" d="M3.12 45.84L1019.77 45.84L1019.77 189.4L3.12 189.4L3.12 45.84Z" />
		<path id="Path_35" class="shp2" d="M183.78 109.95C183.78 118.24 178.79 125.72 171.13 128.89C163.46 132.06 154.65 130.31 148.78 124.45C142.92 118.58 141.17 109.77 144.34 102.1C147.51 94.44 154.99 89.45 163.28 89.45C165.97 89.45 168.64 89.98 171.13 91.01C173.61 92.04 175.87 93.55 177.78 95.45C179.68 97.36 181.19 99.62 182.22 102.1C183.25 104.59 183.78 107.26 183.78 109.95Z" />
		<path id="Path_36" class="shp2" d="M341.17 109.95C341.17 118.24 336.18 125.72 328.52 128.89C320.85 132.06 312.04 130.31 306.17 124.45C300.31 118.58 298.56 109.77 301.73 102.1C304.9 94.44 312.38 89.45 320.67 89.45C323.36 89.45 326.03 89.98 328.52 91.01C331 92.04 333.26 93.55 335.17 95.45C337.07 97.36 338.58 99.62 339.61 102.1C340.64 104.59 341.17 107.26 341.17 109.95Z" />
		<path id="Path_37" class="shp2" d="M764.31 109.95C764.31 118.24 759.32 125.72 751.66 128.89C743.99 132.06 735.18 130.31 729.31 124.45C723.45 118.58 721.7 109.77 724.87 102.1C728.04 94.44 735.52 89.45 743.81 89.45C746.5 89.45 749.17 89.98 751.66 91.01C754.14 92.04 756.4 93.55 758.31 95.45C760.21 97.36 761.72 99.62 762.75 102.1C763.78 104.59 764.31 107.26 764.31 109.95Z" />
		<path id="Path_38" class="shp2" d="M917.17 109.95C917.17 118.24 912.18 125.72 904.52 128.89C896.85 132.06 888.04 130.31 882.17 124.45C876.31 118.58 874.56 109.77 877.73 102.1C880.9 94.44 888.38 89.45 896.67 89.45C899.36 89.45 902.03 89.98 904.52 91.01C907 92.04 909.26 93.55 911.17 95.45C913.07 97.36 914.58 99.62 915.61 102.1C916.64 104.59 917.17 107.26 917.17 109.95Z" />
		<g id="Group_16">
			<path id="Path_39" class="shp2" d="M176.92 95.73L176.92 14.28C176.95 12.46 176.62 10.64 175.96 8.94C175.29 7.24 174.3 5.69 173.04 4.37C171.77 3.06 170.27 2 168.6 1.26C166.93 0.52 165.13 0.11 163.31 0.06L163.31 109.99C165.14 109.94 166.94 109.53 168.61 108.79C170.28 108.05 171.79 106.98 173.05 105.66C174.31 104.34 175.3 102.78 175.97 101.08C176.63 99.37 176.95 97.56 176.92 95.73Z" />
			<path id="Path_40" class="shp2" d="M149.71 14.28L149.71 95.72C149.67 97.55 149.99 99.36 150.65 101.06C151.32 102.77 152.31 104.32 153.57 105.64C154.83 106.96 156.34 108.02 158.01 108.76C159.68 109.5 161.48 109.9 163.31 109.94L163.31 0C161.48 0.04 159.68 0.45 158 1.19C156.33 1.93 154.81 3 153.55 4.32C152.29 5.65 151.3 7.21 150.64 8.92C149.98 10.63 149.66 12.45 149.71 14.28L149.71 14.28Z" />
		</g>
		<g id="Group_17">
			<path id="Path_41" class="shp2" d="M334.58 95.73L334.58 14.28C334.62 12.45 334.3 10.64 333.64 8.93C332.97 7.23 331.98 5.68 330.72 4.35C329.46 3.03 327.95 1.97 326.28 1.24C324.61 0.5 322.81 0.09 320.98 0.05L320.98 109.99C322.81 109.95 324.61 109.55 326.28 108.81C327.95 108.07 329.46 107.02 330.72 105.69C331.99 104.37 332.98 102.82 333.64 101.12C334.3 99.41 334.62 97.6 334.58 95.77L334.58 95.73Z" />
			<path id="Path_42" class="shp2" d="M307.38 14.28L307.38 95.72C307.34 97.55 307.67 99.37 308.33 101.07C308.99 102.77 309.99 104.33 311.25 105.65C312.52 106.97 314.03 108.03 315.71 108.76C317.38 109.5 319.18 109.9 321.01 109.94L321.01 0C319.18 0.04 317.37 0.44 315.69 1.18C314.01 1.92 312.5 2.99 311.23 4.31C309.97 5.64 308.97 7.2 308.31 8.91C307.65 10.62 307.33 12.45 307.38 14.28L307.38 14.28Z" />
		</g>
		<g id="Group_18">
			<path id="Path_43" class="shp2" d="M754.98 95.73L754.98 14.28C755.01 12.45 754.68 10.64 754.02 8.94C753.35 7.24 752.36 5.69 751.1 4.37C749.84 3.05 748.33 1.99 746.66 1.25C744.99 0.51 743.19 0.1 741.37 0.05L741.37 109.99C743.2 109.94 745 109.53 746.67 108.79C748.34 108.05 749.85 106.98 751.11 105.66C752.37 104.34 753.36 102.78 754.03 101.08C754.69 99.37 755.01 97.56 754.98 95.73Z" />
			<path id="Path_44" class="shp2" d="M727.77 14.28L727.77 95.72C727.73 97.55 728.06 99.37 728.72 101.07C729.39 102.78 730.38 104.33 731.65 105.65C732.91 106.97 734.43 108.03 736.1 108.77C737.78 109.5 739.58 109.9 741.41 109.94L741.41 0C739.58 0.04 737.77 0.44 736.09 1.18C734.41 1.92 732.89 2.98 731.63 4.31C730.36 5.63 729.37 7.2 728.7 8.91C728.04 10.62 727.72 12.45 727.77 14.28Z" />
		</g>
		<g id="Group_19">
			<path id="Path_45" class="shp2" d="M908.46 95.73L908.46 14.28C908.5 12.45 908.18 10.63 907.51 8.93C906.85 7.22 905.86 5.67 904.59 4.34C903.32 3.02 901.81 1.96 900.14 1.23C898.46 0.49 896.66 0.09 894.83 0.05L894.83 109.99C896.66 109.95 898.47 109.55 900.14 108.81C901.82 108.07 903.33 107.01 904.6 105.69C905.86 104.37 906.86 102.81 907.52 101.1C908.18 99.39 908.5 97.57 908.46 95.74L908.46 95.73Z" />
			<path id="Path_46" class="shp2" d="M881.22 14.28L881.22 95.72C881.18 97.55 881.51 99.36 882.17 101.07C882.83 102.77 883.82 104.32 885.09 105.64C886.35 106.96 887.86 108.02 889.53 108.76C891.2 109.5 893 109.9 894.83 109.94L894.83 0C893 0.05 891.2 0.46 889.53 1.2C887.86 1.95 886.35 3.01 885.08 4.34C883.82 5.66 882.83 7.22 882.17 8.93C881.5 10.63 881.18 12.45 881.22 14.28L881.22 14.28Z" />
		</g>
		<path id="Rectangle_46" class="shp3" d="M91.36 551.01L198.07 551.01L198.07 657.72L91.36 657.72L91.36 551.01Z" />
		<path id="Rectangle_47" class="shp3" d="M250.84 551.01L357.55 551.01L357.55 657.72L250.84 657.72L250.84 551.01Z" />
		<path id="Rectangle_48" class="shp3" d="M398.74 551.01L505.45 551.01L505.45 657.72L398.74 657.72L398.74 551.01Z" />
		<path id="Rectangle_49" class="shp3" d="M546.64 551.01L653.35 551.01L653.35 657.72L546.64 657.72L546.64 551.01Z" />
		<path id="Rectangle_50" class="shp3" d="M694.54 551.01L801.25 551.01L801.25 657.72L694.54 657.72L694.54 551.01Z" />
		<path id="Rectangle_51" class="shp3" d="M850.65 551.01L957.36 551.01L957.36 657.72L850.65 657.72L850.65 551.01Z" />
		<path id="Rectangle_52" class="shp3" d="M91.36 694.82L198.07 694.82L198.07 801.53L91.36 801.53L91.36 694.82Z" />
		<path id="Rectangle_53" class="shp3" d="M250.84 694.82L357.55 694.82L357.55 801.53L250.84 801.53L250.84 694.82Z" />
		<path id="Rectangle_54" class="shp3" d="M398.74 694.82L505.45 694.82L505.45 801.53L398.74 801.53L398.74 694.82Z" />
		<path id="Rectangle_55" class="shp3" d="M546.64 694.82L653.35 694.82L653.35 801.53L546.64 801.53L546.64 694.82Z" />
		<path id="Rectangle_56" class="shp3" d="M694.54 694.82L801.25 694.82L801.25 801.53L694.54 801.53L694.54 694.82Z" />
		<path id="Rectangle_57" class="shp3" d="M850.65 694.82L957.36 694.82L957.36 801.53L850.65 801.53L850.65 694.82Z" />
		<path id="Rectangle_58" class="shp3" d="M91.36 845.37L198.07 845.37L198.07 952.08L91.36 952.08L91.36 845.37Z" />
		<path id="Rectangle_59" class="shp3" d="M250.84 845.37L357.55 845.37L357.55 952.08L250.84 952.08L250.84 845.37Z" />
		<path id="Rectangle_60" class="shp3" d="M398.74 845.37L505.45 845.37L505.45 952.08L398.74 952.08L398.74 845.37Z" />
		<path id="Rectangle_61" class="shp3" d="M546.64 845.37L653.35 845.37L653.35 952.08L546.64 952.08L546.64 845.37Z" />
		<path id="Rectangle_62" class="shp3" d="M91.36 407.2L198.07 407.2L198.07 513.91L91.36 513.91L91.36 407.2Z" />
		<path id="Rectangle_63" class="shp3" d="M250.84 407.2L357.55 407.2L357.55 513.91L250.84 513.91L250.84 407.2Z" />
		<path id="Rectangle_64" class="shp3" d="M398.74 407.2L505.45 407.2L505.45 513.91L398.74 513.91L398.74 407.2Z" />
		<path id="Rectangle_65" class="shp3" d="M546.64 407.2L653.35 407.2L653.35 513.91L546.64 513.91L546.64 407.2Z" />
		<path id="Rectangle_66" class="shp3" d="M694.54 407.2L801.25 407.2L801.25 513.91L694.54 513.91L694.54 407.2Z" />
		<path id="Rectangle_67" class="shp3" d="M850.65 407.2L957.36 407.2L957.36 513.91L850.65 513.91L850.65 407.2Z" />
	</g>
</svg>